<?xml version="1.0" standalone="no"?>
<!DOCTYPE svg PUBLIC "-//W3C//DTD SVG 20010904//EN"
 "http://www.w3.org/TR/2001/REC-SVG-20010904/DTD/svg10.dtd">
<svg version="1.0" xmlns="http://www.w3.org/2000/svg"
 width="1280.000000pt" height="1278.000000pt" viewBox="0 0 1280.000000 1278.000000"
 preserveAspectRatio="xMidYMid meet">
<g transform="translate(0.000000,1278.000000) scale(0.100000,-0.100000)"
fill="#000000" stroke="none">
<path d="M6140 12770 c-41 -5 -147 -13 -235 -20 -140 -10 -328 -30 -420 -45
-283 -44 -459 -80 -690 -140 -477 -124 -893 -283 -1330 -509 -1726 -891 -2949
-2513 -3329 -4416 -61 -302 -83 -484 -126 -1005 -13 -163 -13 -355 0 -499 6
-61 17 -194 25 -296 46 -562 177 -1144 380 -1685 88 -234 235 -565 250 -565 3
0 36 14 73 31 37 17 82 37 100 45 37 17 43 -8 -53 202 -373 816 -565 1756
-541 2652 10 376 15 419 68 516 284 521 1049 805 2413 896 283 18 1139 15
1505 -6 1982 -114 4308 -536 6150 -1118 321 -101 330 -105 330 -131 0 -38 -61
-438 -91 -602 -51 -274 -137 -633 -214 -898 -20 -68 -4 -68 -175 -8 -231 81
-425 106 -755 98 -311 -7 -549 -41 -920 -132 -552 -134 -1025 -298 -2290 -795
-694 -272 -950 -370 -1270 -487 -1589 -580 -2685 -792 -3680 -712 -71 6 -137
14 -145 19 -19 10 -116 173 -210 352 -39 76 -76 140 -81 144 -9 5 -199 -93
-199 -103 0 -15 158 -308 241 -445 721 -1202 1808 -2124 3116 -2644 583 -232
1257 -388 1868 -434 83 -6 200 -15 261 -20 141 -13 350 -13 484 0 58 5 170 14
250 20 632 47 1295 202 1890 443 1443 585 2610 1653 3304 3027 269 531 457
1070 570 1640 61 302 83 484 126 1005 13 163 13 355 0 499 -6 61 -17 194 -25
296 -85 1043 -447 2079 -1040 2975 -405 613 -893 1130 -1485 1574 -541 405
-1120 712 -1780 940 -80 27 -223 82 -319 121 -163 67 -175 70 -192 54 -12 -10
-28 -15 -46 -11 -15 2 -129 25 -253 50 -247 50 -535 91 -760 107 -80 6 -195
15 -256 20 -126 11 -384 11 -494 0z m590 -240 c529 -32 987 -115 1500 -271
181 -55 243 -83 432 -197 417 -250 814 -611 1117 -1015 350 -469 630 -1076
790 -1712 65 -258 127 -585 116 -613 -5 -13 -32 -14 -193 -9 -641 21 -1280
266 -2072 797 -308 206 -571 402 -1224 914 -695 545 -1004 771 -1366 1001
-535 339 -1019 561 -1466 671 -105 26 -134 37 -122 49 9 9 189 72 347 121 682
212 1447 306 2141 264z m-2689 -575 c598 -101 1200 -372 1919 -861 300 -205
506 -360 1170 -879 212 -166 468 -364 570 -441 884 -670 1533 -1024 2160
-1179 240 -59 406 -81 682 -91 l178 -7 5 -31 c11 -68 25 -253 36 -471 19 -370
-5 -1059 -37 -1072 -7 -2 -127 31 -266 75 -1690 534 -3829 947 -5683 1096
-525 43 -714 50 -1340 50 -618 1 -719 -3 -1105 -40 -873 -84 -1529 -295 -1907
-613 -40 -34 -75 -61 -78 -61 -18 0 17 189 80 443 376 1499 1301 2807 2578
3644 305 201 793 463 860 463 18 0 98 -11 178 -25z m5557 -311 c1238 -744
2186 -1936 2652 -3334 212 -637 322 -1361 308 -2023 -5 -237 -10 -255 -52
-221 -116 92 -166 128 -275 197 -235 147 -612 321 -1066 493 l-220 83 0 68 c0
37 7 171 14 296 17 289 10 876 -14 1125 -9 95 -14 179 -12 186 3 8 30 17 64
21 183 22 485 104 695 189 145 59 308 132 308 140 0 12 -84 176 -90 176 -4 0
-47 -19 -96 -41 -229 -107 -493 -195 -709 -238 -160 -32 -190 -34 -201 -19 -6
7 -23 85 -37 173 -178 1057 -616 1977 -1265 2656 -133 140 -134 150 -4 73z
m1431 -5055 c698 -254 1255 -553 1421 -762 73 -92 75 -99 50 -277 -108 -772
-372 -1543 -755 -2210 -116 -202 -198 -330 -211 -330 -13 0 -19 22 -29 110
-19 161 -75 449 -116 600 -160 585 -397 977 -747 1237 -60 45 -72 58 -66 75
84 265 203 770 263 1118 26 148 70 438 71 463 0 14 34 7 119 -24z m-1129
-1548 c139 -24 268 -61 355 -100 36 -17 65 -31 65 -33 0 -10 -103 -307 -144
-417 -405 -1079 -998 -2039 -1706 -2765 -810 -830 -1718 -1311 -2721 -1443
-19 -3 -105 5 -190 17 -1507 208 -2913 983 -3878 2140 -145 174 -361 461 -361
481 0 4 118 5 263 2 877 -19 1798 156 3027 577 506 173 736 259 1745 655 686
269 922 359 1235 470 757 269 1273 397 1770 439 117 10 429 -3 540 -23z m671
-288 c415 -344 662 -953 755 -1860 l18 -170 -79 -103 c-219 -285 -561 -645
-840 -884 -969 -829 -2161 -1340 -3420 -1466 -180 -18 -389 -28 -405 -19 -17
9 -23 6 185 85 595 224 1192 619 1724 1139 749 733 1351 1667 1799 2790 53
131 172 457 172 469 0 19 22 56 33 56 7 0 33 -17 58 -37z"/>
</g>
</svg>
